<?xml version="1.0" standalone="no"?>
<!DOCTYPE svg PUBLIC "-//W3C//DTD SVG 20010904//EN"
 "http://www.w3.org/TR/2001/REC-SVG-20010904/DTD/svg10.dtd">
<svg version="1.0" xmlns="http://www.w3.org/2000/svg"
 width="262.000000pt" height="262.000000pt" viewBox="0 0 262.000000 262.000000"
 preserveAspectRatio="xMidYMid meet">
<metadata>
Created by potrace 1.11, written by Peter Selinger 2001-2013
</metadata>
<g transform="translate(0.000000,262.000000) scale(0.100000,-0.100000)"
fill="#000000" stroke="none">
<path d="M1185 2594 c-679 -74 -1185 -625 -1185 -1289 0 -332 123 -634 358
-877 246 -254 549 -390 907 -405 356 -15 700 118 961 369 520 502 524 1314 10
1823 -188 186 -409 304 -666 356 -93 19 -307 31 -385 23z m-159 -107 c9 -28
15 -32 54 -35 l43 -3 -33 -27 c-30 -26 -32 -29 -22 -65 6 -20 8 -37 6 -37 -3
0 -18 10 -34 22 l-30 22 -31 -23 c-17 -13 -32 -21 -35 -19 -2 3 1 20 8 38 11
32 10 35 -22 61 l-33 28 44 3 c42 3 44 5 53 40 11 42 16 41 32 -5z m554 -24
c0 -9 16 -13 47 -13 l48 0 -37 -26 -36 -26 13 -39 c16 -44 11 -47 -25 -19 -31
25 -36 25 -67 0 -33 -25 -38 -20 -24 22 11 31 10 34 -21 60 l-33 27 42 1 c41
0 43 1 55 42 l12 41 13 -29 c6 -16 12 -35 13 -41z m-967 -253 l41 0 -33 -27
c-29 -25 -31 -31 -22 -56 17 -44 13 -50 -19 -27 -31 22 -59 21 -80 -5 -23 -27
-29 -15 -15 25 l14 40 -37 25 -37 25 47 0 c44 0 47 1 53 33 12 52 18 54 33 9
13 -40 15 -42 55 -42z m1457 40 c10 -39 12 -40 53 -40 l42 -1 -33 -27 c-30
-25 -32 -30 -23 -55 17 -44 13 -50 -18 -28 -35 26 -40 26 -71 1 -36 -28 -41
-25 -25 19 13 39 13 40 -18 65 l-32 25 41 1 c39 0 41 2 53 40 6 22 14 40 16
40 2 0 9 -18 15 -40z m-567 9 c272 -40 508 -187 652 -404 48 -72 106 -205 131
-300 27 -100 27 -400 0 -495 -130 -463 -478 -720 -976 -720 -478 0 -834 247
-964 670 -106 347 -16 732 230 982 138 139 303 224 514 264 83 15 320 17 413
3z m-1247 -454 c6 -34 8 -35 53 -35 l46 -1 -34 -28 c-35 -28 -36 -40 -14 -97
5 -13 -2 -11 -30 10 l-37 28 -37 -28 c-30 -23 -35 -24 -29 -8 21 55 19 71 -16
95 l-33 24 45 5 c40 4 45 8 54 38 12 42 23 41 32 -3z m2140 3 c9 -30 14 -34
54 -38 l45 -5 -33 -24 c-26 -18 -32 -29 -28 -45 3 -11 9 -32 13 -45 l6 -24
-36 27 -36 28 -37 -29 c-30 -22 -36 -24 -31 -10 22 59 21 69 -14 98 l-34 28
47 1 c46 0 47 1 54 35 8 44 18 45 30 3z m-2216 -545 c0 -9 16 -13 46 -13 l47
0 -29 -22 c-16 -12 -33 -25 -37 -28 -5 -4 -2 -24 7 -44 17 -41 12 -44 -24 -16
-31 25 -36 25 -67 0 -33 -25 -38 -20 -24 22 11 31 10 34 -21 60 l-33 27 42 1
c41 0 43 1 55 42 l12 41 13 -29 c6 -16 12 -35 13 -41z m2353 -13 l42 -1 -33
-27 c-30 -25 -32 -29 -22 -62 5 -19 10 -36 10 -38 0 -2 -16 6 -35 18 l-35 22
-29 -21 c-40 -29 -42 -27 -26 19 l14 39 -37 23 -37 23 46 3 c45 3 47 4 59 45
l13 42 14 -42 c14 -41 16 -43 56 -43z m-2170 -470 l42 -1 -33 -28 c-29 -25
-32 -31 -22 -55 16 -44 12 -49 -25 -26 l-35 22 -26 -21 c-34 -26 -40 -21 -25
21 10 29 9 35 -6 45 -61 41 -61 42 -12 43 45 0 46 1 59 43 l13 42 14 -42 c14
-41 16 -43 56 -43z m1973 38 c9 -30 14 -33 54 -36 l45 -3 -34 -28 c-31 -26
-32 -29 -23 -64 12 -43 10 -44 -29 -16 l-29 20 -29 -20 c-39 -28 -41 -27 -28
15 11 35 10 37 -23 64 l-35 29 45 3 c40 3 45 6 54 36 5 17 12 32 16 32 4 0 11
-15 16 -32z m-1622 -403 c7 -34 8 -35 54 -35 l47 -1 -34 -28 c-35 -29 -36 -39
-14 -98 5 -14 -1 -12 -30 10 l-37 28 -37 -28 -37 -28 7 25 c4 14 10 35 13 46
4 17 -1 26 -25 40 -41 25 -39 32 11 36 38 3 43 6 52 36 12 42 22 41 30 -3z
m1202 -28 c9 -28 16 -33 52 -37 l42 -5 -30 -20 c-32 -20 -34 -37 -14 -90 8
-19 7 -20 -16 -2 -14 9 -31 20 -37 23 -15 7 -27 2 -63 -23 -23 -18 -24 -17
-16 2 21 55 18 69 -16 90 l-33 20 42 3 c40 3 43 6 54 43 13 43 19 43 35 -4z
m-586 -174 c0 -9 16 -13 47 -13 l48 0 -37 -25 -37 -25 14 -40 c16 -45 11 -48
-25 -20 -31 25 -36 25 -71 -1 -31 -22 -35 -16 -18 28 9 25 7 30 -23 55 l-33
27 42 1 c41 0 43 1 55 42 l12 41 13 -29 c6 -16 12 -35 13 -41z"/>
<path d="M1240 2072 c-29 -24 -20 -67 12 -56 17 5 19 3 13 -18 -10 -30 -11
-32 -30 -25 -8 4 -15 17 -15 31 0 99 -184 65 -407 -76 -35 -22 -63 -46 -63
-54 0 -35 131 -63 314 -67 61 -2 91 -6 94 -15 2 -6 11 -12 20 -12 20 -1 62
-34 62 -49 0 -6 -7 -11 -16 -11 -10 0 -14 -6 -11 -14 3 -8 0 -20 -8 -26 -8 -7
-17 -22 -21 -33 -3 -12 -13 -37 -21 -54 -14 -30 -20 -33 -57 -33 -22 0 -60 9
-84 20 l-43 20 -40 -38 -40 -37 30 -57 c50 -97 51 -217 2 -309 -18 -33 -18
-35 1 -62 19 -26 19 -34 9 -88 -23 -116 15 -213 102 -259 26 -14 47 -30 47
-37 0 -6 21 -19 48 -29 26 -9 50 -20 54 -23 4 -3 -96 -5 -221 -3 l-228 3 -17
-26 c-17 -26 -17 -28 5 -51 l22 -24 557 0 557 0 22 24 c20 21 21 27 9 45 -14
22 -42 24 -385 26 -50 0 -89 3 -87 6 2 3 24 12 50 19 26 8 49 20 51 29 2 9 25
28 51 41 92 49 134 162 102 275 -12 43 -11 47 10 70 l24 25 -21 38 c-54 97
-44 272 19 339 13 14 18 26 12 31 -5 4 -25 22 -45 40 l-37 34 -40 -21 c-45
-23 -111 -28 -130 -9 -19 19 -14 28 18 28 47 0 49 25 6 69 -20 20 -36 44 -36
53 0 8 -7 21 -15 28 -9 7 -12 17 -7 22 13 13 151 37 227 40 36 1 68 5 71 9 2
4 26 10 53 14 43 6 93 36 80 49 -2 2 -43 29 -91 59 -111 69 -207 108 -283 114
-68 5 -96 -8 -100 -48 -4 -37 -4 -39 -14 -39 -11 0 -19 80 -9 86 4 3 8 11 8
17 0 8 -22 13 -59 15 -44 2 -63 -2 -81 -16z m-62 -222 c-7 -10 -14 -17 -17
-15 -4 4 18 35 25 35 2 0 -1 -9 -8 -20z m282 -5 c13 -14 19 -25 14 -25 -8 1
-50 50 -41 50 2 0 14 -11 27 -25z m40 0 c13 -14 21 -25 18 -25 -2 0 -15 11
-28 25 -13 14 -21 25 -18 25 2 0 15 -11 28 -25z m-60 -20 c11 -13 10 -14 -4
-9 -9 3 -16 10 -16 15 0 13 6 11 20 -6z m-230 1 c0 -3 -4 -8 -10 -11 -5 -3
-10 -1 -10 4 0 6 5 11 10 11 6 0 10 -2 10 -4z m41 -13 c13 -16 12 -17 -3 -4
-10 7 -18 15 -18 17 0 8 8 3 21 -13z m-7 -43 c-6 -5 -24 21 -24 34 0 6 6 1 14
-10 8 -10 12 -21 10 -24z m162 24 c-4 -10 1 -26 11 -38 l17 -21 -22 21 c-15
13 -20 26 -16 37 3 9 8 17 11 17 3 0 2 -7 -1 -16z m-121 -22 c-3 -3 -11 0 -18
7 -9 10 -8 11 6 5 10 -3 15 -9 12 -12z m68 -14 c10 -16 14 -28 9 -28 -8 0 -32
43 -32 57 0 7 1 6 23 -29z m-36 -24 c-8 -8 -57 7 -57 17 0 6 9 5 20 -1 16 -9
22 -7 27 7 7 17 8 17 11 0 2 -10 2 -21 -1 -23z m203 -111 c0 -2 -6 -3 -13 -3
-8 0 -29 21 -47 48 l-33 47 46 -45 c26 -24 47 -45 47 -47z m-116 36 c35 -41
35 -62 0 -49 -14 6 -43 10 -65 10 -35 0 -39 3 -39 25 0 22 3 25 25 19 19 -5
25 -2 25 10 0 26 26 19 54 -15z m64 -45 c-4 -3 -12 5 -18 18 -12 22 -12 22 6
6 10 -10 15 -20 12 -24z m-434 -70 c33 -12 62 -14 94 -9 63 9 304 9 369 0 34
-5 62 -4 80 4 52 21 70 20 93 -4 20 -21 20 -24 5 -32 -9 -6 -16 -13 -16 -17 1
-3 -5 -29 -14 -58 -23 -78 -19 -181 9 -251 23 -56 23 -58 5 -71 -10 -7 -16
-16 -13 -19 4 -4 0 -9 -9 -13 -15 -5 -15 -8 -2 -21 14 -13 21 -65 16 -123 -6
-76 -56 -142 -122 -162 -21 -6 -39 -18 -42 -28 -3 -10 -35 -27 -90 -46 l-86
-31 -90 33 c-49 17 -92 30 -95 27 -2 -3 -2 4 1 15 4 16 -1 21 -27 27 -43 10
-115 82 -123 124 -11 51 -8 130 4 153 9 16 7 26 -11 50 l-21 29 21 57 c38 100
23 282 -26 323 -13 10 -12 15 7 36 27 27 23 27 83 7z"/>
<path d="M1049 1484 c-17 -21 -1 -51 33 -63 18 -7 114 -11 235 -11 218 0 273
9 273 47 0 32 -18 41 -63 32 -55 -11 -370 -11 -424 0 -32 6 -46 5 -54 -5z"/>
<path d="M1065 1368 c-22 -26 -25 -34 -13 -42 119 -89 228 -182 224 -191 -2
-7 1 -18 7 -25 9 -10 9 -11 -3 -5 -8 4 -23 15 -33 23 -16 14 -20 13 -46 -19
-15 -19 -60 -73 -99 -120 l-71 -86 22 -20 c12 -11 27 -23 34 -27 7 -4 49 39
109 114 54 66 101 120 106 120 12 0 10 -28 -2 -35 -6 -4 45 -51 112 -105 68
-54 126 -96 130 -94 4 3 16 17 27 33 l20 28 -119 94 c-66 52 -117 99 -115 105
2 6 -2 17 -8 23 -8 8 -8 11 1 11 7 0 12 6 12 14 0 17 24 38 34 29 3 -4 -3 -16
-14 -28 -20 -21 -20 -22 -1 -39 18 -16 22 -13 108 91 49 59 93 114 97 121 9
14 -29 62 -48 61 -6 0 -51 -51 -101 -114 -49 -63 -92 -114 -95 -114 -4 -1 -6
34 -5 77 0 54 4 80 14 88 12 9 12 12 1 19 -20 12 -84 13 -92 2 -11 -18 3 -36
25 -31 20 3 22 0 19 -42 -3 -31 -7 -42 -16 -36 -6 5 -47 37 -91 72 -44 35 -85
67 -91 72 -8 6 -22 -3 -39 -24z m60 -19 c-4 -5 -14 -5 -26 1 -11 6 -17 15 -14
21 4 5 14 5 26 -1 11 -6 17 -15 14 -21z m425 22 c0 -13 -29 -35 -37 -28 -7 8
15 37 28 37 5 0 9 -4 9 -9z m20 -25 c0 -15 -18 -31 -26 -23 -7 7 7 37 17 37 5
0 9 -6 9 -14z m-479 -7 c11 -5 17 -14 14 -19 -6 -10 -45 9 -45 22 0 11 8 10
31 -3z m70 -10 c11 -5 17 -14 14 -20 -7 -11 -45 7 -45 21 0 13 7 13 31 -1z
m339 -20 c-6 -11 -15 -17 -21 -14 -5 4 -5 14 1 26 6 11 15 17 21 14 5 -4 5
-14 -1 -26z m28 -17 c-7 -9 -21 -26 -30 -36 -10 -11 -18 -24 -18 -30 0 -5 -6
-4 -12 3 -11 10 -9 16 10 31 12 10 22 22 22 27 0 14 22 33 32 27 5 -3 3 -13
-4 -22z m-383 7 c4 -6 5 -12 2 -15 -7 -7 -37 7 -37 17 0 13 27 11 35 -2z m65
-9 c8 -5 11 -12 8 -16 -10 -9 -38 3 -38 16 0 12 10 13 30 0z m256 -16 c-3 -9
-6 -18 -6 -20 0 -2 -7 -4 -15 -4 -13 0 -14 4 -5 20 13 24 35 27 26 4z m-266
-25 c0 -6 -7 -8 -16 -5 -9 3 -18 6 -20 6 -2 0 -4 7 -4 15 0 13 4 14 20 5 11
-6 20 -16 20 -21z m84 -21 c11 -10 24 -18 30 -18 5 0 4 -6 -3 -12 -10 -11 -16
-9 -31 10 -10 12 -23 22 -28 22 -14 0 -33 26 -25 33 6 7 19 -1 57 -35z m-39
-19 c-4 -5 -14 -5 -26 1 -11 6 -17 15 -14 21 4 5 14 5 26 -1 11 -6 17 -15 14
-21z m183 11 c-15 -23 -28 -26 -28 -7 0 17 10 27 27 27 11 0 11 -4 1 -20z m32
-9 c0 -13 -29 -35 -37 -28 -7 8 15 37 28 37 5 0 9 -4 9 -9z m-186 -17 c9 -3
16 -13 16 -20 0 -12 -4 -12 -20 -4 -11 6 -20 15 -20 20 0 12 3 12 24 4z m146
-33 c0 -13 -26 -32 -33 -24 -8 7 11 33 24 33 5 0 9 -4 9 -9z m-99 -34 c-1 -12
-15 -9 -19 4 -3 6 1 10 8 8 6 -3 11 -8 11 -12z m-81 -14 c0 -14 -19 -38 -25
-32 -8 8 5 39 16 39 5 0 9 -3 9 -7z m30 -21 c0 -11 -22 -32 -32 -32 -5 0 -4 9
2 20 11 20 30 28 30 12z m102 -22 c7 -11 18 -20 24 -20 17 0 37 -27 25 -34 -5
-4 -12 -2 -16 4 -3 5 -11 10 -17 10 -6 0 -6 -6 2 -15 17 -20 5 -32 -15 -15
-12 10 -13 16 -4 27 9 11 8 17 -7 28 -10 8 -23 15 -27 15 -11 0 2 20 14 20 5
0 14 -9 21 -20z m-171 -13 c-17 -17 -13 -31 4 -17 20 17 33 4 14 -15 -12 -12
-17 -12 -32 0 -15 11 -17 17 -7 34 6 12 16 19 21 15 7 -4 7 -10 0 -17z m148
-11 c19 -23 -4 -28 -24 -6 -15 17 -16 20 -3 20 9 0 21 -6 27 -14z m-193 -44
c-8 -9 -19 -13 -22 -9 -10 9 16 38 28 31 6 -4 4 -13 -6 -22z m12 -43 c-31 -38
-48 -49 -48 -29 0 5 9 15 20 22 11 7 20 18 20 23 0 16 22 35 32 29 4 -3 -6
-23 -24 -45z m297 40 c4 -6 5 -12 2 -15 -7 -7 -37 7 -37 17 0 13 27 11 35 -2z
m-25 -24 c7 -9 10 -18 7 -22 -8 -7 -37 15 -37 28 0 14 16 11 30 -6z m-310 -4
c0 -13 -29 -35 -37 -28 -7 8 15 37 28 37 5 0 9 -4 9 -9z m390 -21 c0 -14 -14
-12 -28 2 -19 19 -14 30 8 18 11 -6 20 -15 20 -20z m-31 -13 c6 -8 8 -17 4
-20 -7 -8 -33 11 -33 24 0 13 16 11 29 -4z m76 -27 c-4 -6 -14 -5 -25 2 -24
16 -15 31 11 18 11 -6 17 -15 14 -20z m-475 11 c0 -13 -26 -32 -33 -24 -8 7
11 33 24 33 5 0 9 -4 9 -9z m30 -20 c0 -13 -29 -35 -37 -28 -7 8 15 37 28 37
5 0 9 -4 9 -9z m404 3 c9 -3 16 -12 16 -20 0 -12 -4 -12 -20 -2 -30 19 -27 34
4 22z"/>
<path d="M1042 1170 c-15 -24 -16 -57 -1 -65 15 -10 20 -2 22 44 3 46 -2 51
-21 21z"/>
<path d="M1487 1172 c-19 -21 -22 -58 -6 -67 6 -4 12 -5 15 -2 4 4 12 87 8 87
0 0 -8 -8 -17 -18z"/>
<path d="M1090 1110 c0 -13 5 -20 13 -17 6 2 12 10 12 17 0 7 -6 15 -12 18 -8
2 -13 -5 -13 -18z"/>
<path d="M1526 1122 c-2 -4 -1 -14 4 -22 7 -11 12 -12 21 -3 6 6 8 16 5 22 -8
13 -23 14 -30 3z"/>
<path d="M1289 978 c-2 -18 -1 -21 6 -40 6 -14 2 -18 -20 -18 -15 0 -24 -4
-20 -10 3 -5 15 -10 26 -10 21 0 25 -28 13 -89 -5 -24 -11 -31 -26 -29 -10 2
-18 5 -17 8 1 3 -3 15 -10 28 -13 24 -31 21 -31 -6 0 -19 48 -72 66 -72 6 0
17 -6 23 -14 23 -28 123 57 114 95 -3 11 -9 19 -13 19 -8 0 -23 -27 -24 -45
-1 -5 -11 -11 -23 -13 -19 -3 -21 2 -25 57 -3 58 -2 61 20 61 12 0 22 5 22 10
0 6 -11 10 -25 10 -27 0 -32 9 -14 27 7 7 9 19 6 27 -7 19 -46 22 -48 4z m33
-13 c0 -5 -5 -11 -11 -13 -6 -2 -11 4 -11 13 0 9 5 15 11 13 6 -2 11 -8 11
-13z"/>
<path d="M1989 1755 c0 -27 0 -81 1 -119 1 -57 -2 -72 -20 -91 -17 -18 -21
-39 -26 -117 -4 -81 -2 -105 17 -158 20 -59 21 -64 5 -97 -24 -50 -21 -125 5
-149 18 -17 20 -29 19 -114 -3 -126 -2 -142 10 -135 6 4 7 48 4 115 -6 107 -6
110 17 129 19 15 24 30 26 77 5 124 4 152 -13 195 -21 55 -21 73 1 129 19 51
14 99 -14 124 -16 15 -18 30 -15 124 2 59 -1 114 -6 122 -7 11 -10 0 -11 -35z
m0 -287 c-1 -70 -1 -72 -14 -43 -8 17 -14 40 -15 53 0 23 16 62 25 62 3 0 5
-33 4 -72z m41 18 c0 -27 -19 -94 -28 -100 -4 -2 -5 33 -4 77 3 74 5 80 18 63
8 -11 14 -29 14 -40z m-50 -122 c0 -7 -3 -20 -6 -29 -10 -25 -24 2 -24 45 1
33 2 34 15 16 8 -11 15 -25 15 -32z m40 -90 c0 -12 -6 -26 -13 -32 -9 -8 -12
0 -10 36 l1 47 -7 -40 c-6 -39 -7 -39 -14 -12 -4 16 -3 36 4 49 l12 21 13 -24
c7 -13 13 -34 14 -45z m20 -81 l-1 -48 -14 33 c-14 32 -11 62 6 62 5 0 9 -21
9 -47z m-10 -105 c0 -32 -9 -58 -21 -58 -5 0 -10 33 -11 73 l-2 72 -6 -75 c-5
-72 -6 -74 -18 -45 -13 30 -11 56 10 109 l12 30 18 -40 c10 -21 18 -51 18 -66z"/>
<path d="M630 1675 c0 -102 -2 -117 -20 -135 -26 -26 -26 -90 -1 -145 18 -39
18 -41 -3 -80 -18 -35 -21 -55 -19 -154 2 -98 5 -117 21 -134 24 -24 55 -16
70 19 17 36 14 73 -7 121 l-19 42 24 68 c23 67 30 123 17 136 -3 4 -7 32 -7
63 -1 42 -5 59 -20 69 -17 13 -19 28 -18 130 0 63 -4 115 -9 115 -5 0 -9 -52
-9 -115z m-1 -207 c0 -50 -3 -67 -9 -53 -15 34 -10 125 6 125 2 0 4 -33 3 -72z
m35 56 c8 -21 6 -75 -3 -99 -6 -14 -10 1 -12 48 -4 64 2 85 15 51z m14 -181
c-3 -28 -3 -28 -16 -6 -10 17 -10 27 0 50 12 26 13 26 16 5 2 -12 2 -34 0 -49z
m-17 -67 c-5 -17 -7 -15 -9 12 -2 17 -8 32 -13 32 -6 0 -7 5 -3 11 11 18 32
-30 25 -55z m-31 2 c0 -23 -3 -29 -11 -21 -6 6 -8 20 -4 32 9 30 15 26 15 -11z
m-14 -94 c-21 -46 -32 -27 -20 36 7 32 7 32 19 10 9 -17 9 -29 1 -46z m26 -12
c-8 -2 -12 -28 -12 -73 0 -44 -4 -68 -10 -64 -5 3 -10 25 -10 49 0 54 18 108
33 99 8 -5 8 -8 -1 -11z m27 -79 c1 -17 -2 -38 -5 -47 -13 -34 -19 -13 -15 51
3 69 19 66 20 -4z"/>
<path d="M630 940 c0 -33 4 -60 10 -60 6 0 10 27 10 60 0 33 -4 60 -10 60 -6
0 -10 -27 -10 -60z"/>
<path d="M630 820 c0 -27 4 -50 10 -50 5 0 9 23 9 50 -1 28 -6 50 -10 50 -5 0
-9 -22 -9 -50z"/>
</g>
</svg>
