<?xml version="1.0" encoding="utf-8"?>
<!-- Generator: Adobe Illustrator 17.1.0, SVG Export Plug-In . SVG Version: 6.00 Build 0)  -->

<svg version="1.1" baseProfile="basic" id="Arrow_1_"
	 xmlns="http://www.w3.org/2000/svg" xmlns:xlink="http://www.w3.org/1999/xlink" x="0px" y="0px" width="500px" height="500px"
	 viewBox="0 0 500 500" xml:space="preserve">
<g>
	<path fill="#fff" d="M250,0C112.1,0,0,112.2,0,250s112.2,250,250,250s250-112.1,250-250S387.9,0,250,0z M250,457.6
		c-114.5,0-207.7-93.1-207.7-207.6c0-114.5,93.1-207.7,207.7-207.7S457.7,135.5,457.7,250S364.5,457.6,250,457.6z"/>
	<path fill="#fff" d="M326.4,173.6c-8.3-8.3-21.7-8.3-30,0L250,220.1l-46.5-46.5c-8.3-8.3-21.7-8.3-30,0c-8.3,8.3-8.3,21.7,0,30
		l46.5,46.4l-46.5,46.5c-8.3,8.3-8.3,21.7,0,30c4.1,4.1,9.5,6.2,15,6.2s10.8-2.1,15-6.2L250,280l46.4,46.4c4.1,4.1,9.5,6.2,15,6.2
		s10.8-2.1,15-6.2c8.3-8.3,8.3-21.7,0-30L280,250l46.4-46.4C334.7,195.3,334.7,181.9,326.4,173.6z"/>
</g>
</svg>
